# xmcd
#
# Track frame offsets:
#	150
#	22324
#	43087
#	60693
#	75138
#	96314
#	117585
#	134347
#	148966
#	172788
#	201708
#	213861
#	238537
#	257820
#	290502
#	305496
#
# Disc length: 4356 seconds
#
# Revision: 0
# Processed by: cddbd v1.4PL0 Copyright (c) Steve Scherf et al.
# Submitted via: EasyCDDAExtractor 5.0.2.1
#
DISCID=f4110210
DTITLE=Lee Clayton - The Essential 1978-1981
DYEAR=2001
DGENRE=
TTITLE0=Silver Stallion
TTITLE1=Back Home In Tennessee
TTITLE2=Border Affair
TTITLE3=Old Number Nine
TTITLE4=Like A Diamond
TTITLE5=Tequila Is Addictive
TTITLE6=Rainbow In The Sky
TTITLE7=Saturday Night Special
TTITLE8=I Ride Alone
TTITLE9=10.000 Years - Sexual Moon
TTITLE10=Wind And Rain
TTITLE11=A Little Cocaine
TTITLE12=Jaded Virgin
TTITLE13=Industry
TTITLE14=Won't You Give Me One More Chance
TTITLE15=Where Is The Justice
EXTD=
EXTT0=
EXTT1=
EXTT2=
EXTT3=
EXTT4=
EXTT5=
EXTT6=
EXTT7=
EXTT8=
EXTT9=
EXTT10=
EXTT11=
EXTT12=
EXTT13=
EXTT14=
EXTT15=
PLAYORDER=
